inDegrees=no
num_controls=7
num_derivatives=13
num_iterations=150
num_multipliers=7
num_parameters=0
num_slacks=7
num_states=26
objective=5.817155
objective_accelerations=0.341662
objective_balance=0.016291
objective_effort=0.401924
objective_height=4.947279
objective_ligament=0.110000
solver_duration=1285.248053
status=Solve_Succeeded
success=true
DataType=double
version=3
OpenSimVersion=4.4-2022-07-23-0e9fedc
endheader
time	/jointset/ground_pelvis/pelvis_tilt/value	/jointset/ground_pelvis/pelvis_tx/value	/jointset/ground_pelvis/pelvis_ty/value	/jointset/hip_r/hip_flexion_r/value	/jointset/hip_r/hip_adduction_r/value	/jointset/hip_r/hip_rotation_r/value	/jointset/back/lumbar_extension/value	/jointset/patellofemoral_r/patellar_flexion_r/value	/jointset/knee_r/knee_flexion_r/value	/jointset/knee_r/knee_adduction_r/value	/jointset/knee_r/knee_rotation_r/value	/jointset/ankle_r/ankle_angle_r/value	/jointset/subtalar_r/subtalar_angle_r/value	/jointset/ground_pelvis/pelvis_tilt/speed	/jointset/ground_pelvis/pelvis_tx/speed	/jointset/ground_pelvis/pelvis_ty/speed	/jointset/hip_r/hip_flexion_r/speed	/jointset/hip_r/hip_adduction_r/speed	/jointset/hip_r/hip_rotation_r/speed	/jointset/back/lumbar_extension/speed	/jointset/patellofemoral_r/patellar_flexion_r/speed	/jointset/knee_r/knee_flexion_r/speed	/jointset/knee_r/knee_adduction_r/speed	/jointset/knee_r/knee_rotation_r/speed	/jointset/ankle_r/ankle_angle_r/speed	/jointset/subtalar_r/subtalar_angle_r/speed	/forceset/tau_hip_flexion_r	/forceset/tau_hip_adduction_r	/forceset/tau_hip_rotation_r	/forceset/tau_knee_flexion_r	/forceset/tau_ankle_angle_r	/forceset/tau_subtalar_angle_r	/forceset/tau_lumbar_extension	lambda_cid13_p0	lambda_cid14_p0	lambda_cid14_p1	lambda_cid14_p2	lambda_cid14_p3	lambda_cid14_p4	lambda_cid14_p5	/jointset/ground_pelvis/pelvis_tilt/accel	/jointset/ground_pelvis/pelvis_tx/accel	/jointset/ground_pelvis/pelvis_ty/accel	/jointset/hip_r/hip_flexion_r/accel	/jointset/hip_r/hip_adduction_r/accel	/jointset/hip_r/hip_rotation_r/accel	/jointset/back/lumbar_extension/accel	/jointset/patellofemoral_r/patellar_flexion_r/accel	/jointset/knee_r/knee_flexion_r/accel	/jointset/knee_r/knee_adduction_r/accel	/jointset/knee_r/knee_rotation_r/accel	/jointset/ankle_r/ankle_angle_r/accel	/jointset/subtalar_r/subtalar_angle_r/accel	gamma_cid13_p0	gamma_cid14_p0	gamma_cid14_p1	gamma_cid14_p2	gamma_cid14_p3	gamma_cid14_p4	gamma_cid14_p5
0.5	-0.06821931899063706	0.06019409657902884	0.8759090190890623	0.6204225068176253	-0.2256976536779634	-0.147465051442005	-0.3105780316542395	0.6379102505621828	0.637910250562327	0.03797424475666303	0.1745098337564961	0.2562646218975727	0.06063519008359947	-0.1762835500700482	-0.06932651961552028	-0.2781801905153188	1.20427401835438	-0.007223125529791944	0.2272628147005263	-0.6010131003133754	1.547521073983832	1.547521073983904	-0.282051524820862	-0.0001313756314125013	0.6062747474589272	0.1666532585079465	-0.05408607368792331	-0.02211787508369475	0.006198405437046975	-0.3373713469005854	0.06706369092359718	-0.01141137532942008	0.1209315560237085	-34.71978522732744	-20.91839481472755	-4.504262057000127	-3.521515205878138	3.109627586080984	-673.1476651146834	61.25854416390115	0.04320373862792747	0.2457127943889374	-0.3143684250748499	-0.7617111056174382	-0.087000473397221	-0.5048731521118579	1.189954039511351	-0.9572562499949393	-0.9572562499949473	0.4045207856068223	0.004179803203919987	-0.3675236873214678	-0.07791732744960013	-8.638078252232612e-08	-1.244223487206751e-07	4.065149172805757e-07	-1.086583808064426e-06	2.723557868955101e-08	-1.458187560005382e-07	7.870268336714888e-07
0.51	-0.06997986731321046	0.05951318140616216	0.873112050431767	0.6324255760921188	-0.2257749382161955	-0.1452164834906049	-0.316527765746701	0.6533354494815736	0.6533354494816788	0.03517622474561356	0.1745085301738163	0.262307919955858	0.0622965282661589	-0.1757986900583445	-0.06685107873087376	-0.2811527571104062	1.196174478599014	-0.008238381925425297	0.2224666806937989	-0.5888616858494891	1.537303377828766	1.537303377828762	-0.2775083233908908	-0.0001352056733916471	0.6022988406109303	0.1655782716286613	-0.05868756714270809	-0.02048109182317391	0.006892828934264892	-0.3399614378257103	0.06257985634605198	-0.01079224366411148	0.1252455712825387	-33.91359864961067	-22.46397078352189	-4.606022446051316	-3.391033061103655	3.761627926624744	-675.7250037102881	61.0860292304089	0.05522983381454529	0.2492809976112665	-0.2796113327923933	-0.8588928979187912	-0.1096294503816116	-0.4647502971091623	1.238539999612099	-1.086309641708133	-1.086309641719501	0.4858313245764411	-0.003728810340630903	-0.4255327235623854	-0.1277724343756713	-7.252519518886973e-08	-8.170612642958524e-08	4.725670226220558e-07	-7.556626114388743e-07	-6.398201878727881e-09	-9.29746514375971e-08	6.550227005932859e-07
0.52	-0.07173474649540934	0.05885718489456293	0.8702871739973075	0.6443426864715702	-0.2258625435639135	-0.1430154302337141	-0.3223538247245687	0.6686520147707359	0.6686520147707951	0.03242495904945063	0.1745069754102177	0.2683088772376576	0.06394601996668439	-0.1751497219916584	-0.06434278736203151	-0.2837617459481263	1.18708223934675	-0.009287287430471625	0.2177598758008423	-0.5762780773941564	1.525794347935871	1.52579434793579	-0.272700661845549	-0.0001816118130392437	0.5978065921619884	0.1642839621010654	-0.06328906059743963	-0.01884430856266569	0.007587252431341129	-0.3425515287508228	0.05809602176850516	-0.01017311199881574	0.1295595865414168	-33.08752437256819	-24.01719650163398	-4.706448753095162	-3.263817986957788	4.406040031079584	-678.4288056100337	60.97786663214941	0.07602534962455712	0.2522828912280083	-0.2416528736013988	-0.9602510049970101	-0.09373029527984579	-0.4870073293576232	1.27639283780079	-1.215522997560747	-1.215522997560742	0.4574128086809763	-0.004335416329808426	-0.4707920075105548	-0.1217818571117637	-5.271095347945331e-08	-1.733653449865544e-09	6.802896932203091e-07	-1.399406630071901e-07	-7.820254554680393e-08	3.359787976187492e-09	4.642030282255562e-07
0.53	-0.07348244678113029	0.05822642607886541	0.8674380488946983	0.6561642032057651	-0.2259602823328478	-0.1408629855918775	-0.3280518994785552	0.6838471944440063	0.6838471944441268	0.02972095514876364	0.1745058564930553	0.2742625704399622	0.06558225505330405	-0.1743671467230243	-0.06180310129801244	-0.2859993524393146	1.177059945167235	-0.01026899391841425	0.2127712243962021	-0.5632742725243293	1.51303197714043	1.513031977140368	-0.2680369684134215	-6.432432313393925e-05	0.5928506720639287	0.1629212059470467	-0.06759709665281072	-0.01760998306123913	0.00830044949281036	-0.3455409095031807	0.05420266694599474	-0.009549676361971113	0.1336543766507949	-32.24483957393429	-25.38068195499731	-4.7679098562499	-3.14723986628238	4.914839629912208	-681.1399277408971	61.02117852662322	0.08285292558967054	0.2556694521844421	-0.20521542477813	-1.047389464974363	-0.1015708158782207	-0.4984947179558067	1.321764443720837	-1.338027095688959	-1.338027095686015	0.480442276473321	0.01648257628613781	-0.5202190370046191	-0.1496543903379415	-3.518321405578771e-08	6.562958217492897e-08	8.635395887028757e-07	3.824404630748674e-07	-1.385278064959176e-07	7.742571259666619e-08	3.201000918103326e-07
0.54	-0.07522162545215674	0.05762123572144649	0.8645684675495972	0.6678806628300546	-0.2260680741646988	-0.1387591675984955	-0.3336180581574163	0.6989084638142422	0.6989084638145002	0.02706550711565949	0.1745052547997844	0.2801642590360753	0.06720363619922623	-0.1734453990500453	-0.05922909570631064	-0.2878529944465046	1.166070817365907	-0.01129790001942303	0.2080345461140131	-0.549894862368564	1.499012287338862	1.49901228733882	-0.2629894883414933	-7.816704781795643e-05	0.5874056709238287	0.1613131739613825	-0.0719051327081443	-0.01637565755985516	0.009013646555087912	-0.3485302902555396	0.05030931212346685	-0.008926240725202737	0.1377491667602123	-31.38873699263096	-26.75247233467379	-4.829356442786369	-3.032341059966612	5.427567694027676	-683.9838961749181	61.08574438956242	0.1038598304936695	0.2591467967645049	-0.1648599768017047	-1.153617729359654	-0.1031702178930705	-0.4366127048673282	1.351513894988547	-1.466986798786054	-1.466986798786007	0.5341701366411946	-0.03056145924769134	-0.5686082159187272	-0.1708370234408987	-2.0185221841889e-08	1.190421722155508e-07	1.01971322235532e-06	8.015508920892512e-07	-1.861528057134131e-07	1.268541314883806e-07	2.276837568744782e-07
0.55	-0.076950870649131	0.05704191981300737	0.8616823109494293	0.67948249762345	-0.2261859182932774	-0.1367033417501302	-0.3390486790175747	0.7138233107083343	0.7138233107084909	0.02446043541210909	0.1745048487707142	0.286009211859246	0.06880841675595334	-0.1723820414850672	-0.05663107271411289	-0.2893118817406315	1.154143566404298	-0.0122697755929889	0.2031455929962527	-0.5361740477715422	1.483755382288192	1.483755382288089	-0.2579977246286932	-1.314771512486924e-05	0.5815089770873446	0.1596150527472706	-0.07610749517180411	-0.01507440419408494	0.009652469473748078	-0.3515134020059163	0.04646326010686783	-0.00834326174132238	0.1417462149771856	-30.52604545649185	-28.11120088453057	-4.908964724058522	-2.911259842006727	5.949818901079096	-686.8084153228393	61.11695290394084	0.1108240185600535	0.2605396144506459	-0.1264057657321042	-1.235149081177756	-0.09375583130544378	-0.5127362468815777	1.390654526060198	-1.585296335849046	-1.585296335858178	0.4859573884205364	0.02372259180588545	-0.6116189499434503	-0.1731874026746587	-9.836105221514933e-09	1.536502669932645e-07	1.11451307102521e-06	1.064776679842443e-06	-2.167682602878772e-07	1.591716179268857e-07	1.790922944186492e-07
0.5600000000000001	-0.07866883221065775	0.0564886660472901	0.8587835649443173	0.6909604858469082	-0.2263133930984125	-0.1346959453592856	-0.344340433874964	0.7285795377563852	0.7285795377564592	0.02190613692566993	0.1745048307274474	0.2917929139475646	0.07039543855408459	-0.1711886719576231	-0.05401666716194101	-0.2903708754352939	1.141301503378044	-0.01322403533525955	0.1983486546124542	-0.5221216618144223	1.467288318131857	1.467288318131693	-0.2528348449230506	-5.698913074921822e-07	0.5751555239536504	0.1577614222420254	-0.08030985763538193	-0.01377315082828662	0.01029129239244918	-0.3544965137562768	0.04261720809027763	-0.007760282757403196	0.1457432631942241	-29.66110047612087	-29.4766141537708	-4.990440396121961	-2.789083609049474	6.479776064541387	-689.7373310108569	61.1348067934188	0.1298622229869807	0.2624233087593005	-0.08488125690880949	-1.336580142288545	-0.09964705163408193	-0.4182097580749225	1.417828167008279	-1.709018619919085	-1.709018619919092	0.5683933352098007	-0.04104976102285425	-0.6599600753608166	-0.2019388816676095	-5.065639313370246e-09	1.656929674554893e-07	1.135664377716037e-06	1.14094089808221e-06	-2.269722612907043e-07	1.709559854215402e-07	1.83090678938849e-07
0.5700000000000001	-0.08037425574204655	0.05596161845233336	0.8558762442391875	0.702305594936884	-0.2264502308485227	-0.13273650409532	-0.349490032429821	0.7431651283332852	0.7431651283333854	0.01940381568104227	0.1745048934329034	0.2975108672949386	0.07196329297042971	-0.1698739515827691	-0.05139153533437392	-0.291024096197484	1.127569821057331	-0.0141387557326495	0.1935412429603771	-0.5077508512691039	1.449632936089555	1.449632936089496	-0.2476162527493381	1.134505351139297e-05	0.5683629391801294	0.1557864789303526	-0.08438137885047738	-0.01248042778938047	0.01082585135720176	-0.3575112007118565	0.03887871693605851	-0.007135451753198492	0.1496254673894696	-28.79453759768924	-30.80422386832787	-5.043623209959757	-2.675414185752379	6.988600933110276	-692.643050450004	61.20325767408404	0.1356019019212926	0.2627090451237807	-0.04513155252178589	-1.414017619309951	-0.08637866840940227	-0.51169063186757	1.453787181678035	-1.823326696950909	-1.823326696935162	0.5007802062877823	0.02228554073138226	-0.6997706212516451	-0.1983996583872832	-2.467889370742312e-09	1.697764913173056e-07	1.136873639482714e-06	1.156712229822112e-06	-2.300701841865162e-07	1.740570305893616e-07	2.016594532919275e-07
